<svg width="11" height="12" viewBox="0 0 11 12" fill="none" xmlns="http://www.w3.org/2000/svg">
<g opacity="0.5">
<path d="M2.54061 7.91016L5.65561 7.91016H8.46061C8.94061 7.91016 9.18061 7.33016 8.84061 6.99016L6.25061 4.40016C5.83561 3.98516 5.16061 3.98516 4.74561 4.40016L3.76061 5.38516L2.15561 6.99016C1.82061 7.33016 2.06061 7.91016 2.54061 7.91016Z" fill="#161622"/>
<path d="M2.54061 7.91016L5.65561 7.91016H8.46061C8.94061 7.91016 9.18061 7.33016 8.84061 6.99016L6.25061 4.40016C5.83561 3.98516 5.16061 3.98516 4.74561 4.40016L3.76061 5.38516L2.15561 6.99016C1.82061 7.33016 2.06061 7.91016 2.54061 7.91016Z" fill="black" fill-opacity="0.2"/>
</g>
</svg>
