<svg width="32" height="32" viewBox="0 0 32 32" fill="none" xmlns="http://www.w3.org/2000/svg">
<path fill-rule="evenodd" clip-rule="evenodd" d="M22.2169 19.4763C21.7049 18.3273 21.0159 16.7173 21.0159 14.9893C21.0159 11.8693 20.1379 10.5373 19.3739 9.91226C18.5339 9.22526 17.3519 8.98926 16.0149 8.98926C14.6789 8.98926 13.4969 9.22526 12.6569 9.91226C11.8929 10.5373 11.0149 11.8693 11.0149 14.9893C11.0149 16.7183 10.3259 18.3283 9.81392 19.4773C9.76792 19.5803 9.72392 19.6793 9.68092 19.7753C9.15492 20.9533 8.88492 21.5573 8.85192 22.0103C8.85192 22.0123 8.85092 22.0143 8.85092 22.0163C8.91792 22.0773 9.05792 22.1873 9.29992 22.2743C10.2809 22.6673 12.2679 22.9893 16.0149 22.9893C19.7629 22.9893 21.7499 22.6673 22.7299 22.2743C22.9729 22.1873 23.1129 22.0763 23.1799 22.0153C23.1799 22.0133 23.1789 22.0113 23.1789 22.0093C23.1459 21.5563 22.8759 20.9513 22.3489 19.7713C22.3069 19.6773 22.2629 19.5783 22.2169 19.4763ZM23.1869 22.1033C23.1839 22.0973 23.1809 22.0733 23.1849 22.0513C23.1909 22.0983 23.1889 22.1093 23.1869 22.1033ZM8.84392 22.1043C8.84192 22.1103 8.83992 22.0993 8.84592 22.0533C8.84892 22.0753 8.84592 22.0983 8.84392 22.1043ZM24.2239 19.0633C23.6439 17.7783 23.0159 16.3843 23.0159 14.9893C23.0159 7.98926 19.0159 6.98926 16.0149 6.98926C13.0159 6.98926 9.01492 7.98926 9.01492 14.9893C9.01492 16.3853 8.38592 17.7793 7.80592 19.0653C6.30692 22.3913 5.13492 24.9893 16.0149 24.9893C26.8969 24.9893 25.7239 22.3893 24.2239 19.0633Z" fill="#9FA19E"/>
<path fill-rule="evenodd" clip-rule="evenodd" d="M17.4639 6.081C17.7569 6.118 18.0339 5.905 17.9749 5.616C17.7909 4.712 16.9799 4 16.0149 4C15.0489 4 14.2389 4.712 14.0549 5.616C13.9959 5.905 14.2729 6.118 14.5659 6.081C15.5209 5.959 16.5089 5.959 17.4639 6.081Z" fill="#9FA19E"/>
<path fill-rule="evenodd" clip-rule="evenodd" d="M12.9781 25.9113C12.4531 25.8763 11.9681 26.2813 12.1381 26.7793C12.6381 28.2453 14.5511 29.0003 16.0151 29.0003C17.4801 29.0003 19.3911 28.2453 19.8921 26.7793C20.0621 26.2813 19.5771 25.8763 19.0521 25.9113C18.4971 25.9483 17.9061 26.4863 17.3951 26.7063C16.9061 26.9183 16.2671 27.0003 16.0151 27.0003C15.7141 27.0003 15.0801 26.9323 14.6061 26.7263C14.0951 26.5053 13.5331 25.9483 12.9781 25.9113Z" fill="#9FA19E"/>
<rect x="19.5" y="5.5" width="11" height="11" rx="5.5" fill="#E53935"/>
<rect x="19.5" y="5.5" width="11" height="11" rx="5.5" stroke="white" stroke-width="3"/>
</svg>
