<svg width="100" height="100" viewBox="0 0 100 100" fill="none" xmlns="http://www.w3.org/2000/svg">
<rect y="4" width="96" height="96" rx="48" fill="#FFFBEB"/>
<path d="M67.5 76.75L60.875 70.25H34.25C30.4167 70.25 27.1667 68.9167 24.5 66.25C21.8333 63.5833 20.5 60.3333 20.5 56.5C20.5 53.2917 21.4896 50.4375 23.4688 47.9375C25.4479 45.4375 28 43.8333 31.125 43.125C31.25 42.7917 31.375 42.4688 31.5 42.1562C31.625 41.8438 31.75 41.5 31.875 41.125L21.5 30.75L25 27.25L71 73.25L67.5 76.75ZM34.25 65.25H55.875L35.75 45.125C35.6667 45.5833 35.6042 46.0208 35.5625 46.4375C35.5208 46.8542 35.5 47.2917 35.5 47.75H34.25C31.8333 47.75 29.7708 48.6042 28.0625 50.3125C26.3542 52.0208 25.5 54.0833 25.5 56.5C25.5 58.9167 26.3542 60.9792 28.0625 62.6875C29.7708 64.3958 31.8333 65.25 34.25 65.25ZM72 67.125L68.375 63.625C69.0833 63.0417 69.6146 62.3646 69.9688 61.5938C70.3229 60.8229 70.5 59.9583 70.5 59C70.5 57.25 69.8958 55.7708 68.6875 54.5625C67.4792 53.3542 66 52.75 64.25 52.75H60.5V47.75C60.5 44.2917 59.2812 41.3438 56.8438 38.9062C54.4062 36.4688 51.4583 35.25 48 35.25C46.875 35.25 45.7917 35.3854 44.75 35.6562C43.7083 35.9271 42.7083 36.3542 41.75 36.9375L38.125 33.3125C39.5833 32.3125 41.1354 31.5521 42.7812 31.0312C44.4271 30.5104 46.1667 30.25 48 30.25C52.875 30.25 57.0104 31.9479 60.4062 35.3438C63.8021 38.7396 65.5 42.875 65.5 47.75C68.375 48.0833 70.7604 49.3229 72.6562 51.4688C74.5521 53.6146 75.5 56.125 75.5 59C75.5 60.625 75.1875 62.1354 74.5625 63.5312C73.9375 64.9271 73.0833 66.125 72 67.125Z" fill="#F59E0B"/>
<rect x="64.5" width="35.5" height="31.75" rx="15.875" fill="white"/>
<path d="M68.5 27.75L82.25 4L96 27.75H68.5ZM72.8125 25.25H91.6875L82.25 9L72.8125 25.25ZM82.25 24C82.6042 24 82.901 23.8802 83.1406 23.6406C83.3802 23.401 83.5 23.1042 83.5 22.75C83.5 22.3958 83.3802 22.099 83.1406 21.8594C82.901 21.6198 82.6042 21.5 82.25 21.5C81.8958 21.5 81.599 21.6198 81.3594 21.8594C81.1198 22.099 81 22.3958 81 22.75C81 23.1042 81.1198 23.401 81.3594 23.6406C81.599 23.8802 81.8958 24 82.25 24ZM81 20.25H83.5V14H81V20.25Z" fill="#F59E0B"/>
</svg>
