<svg width="280" height="280" viewBox="0 0 280 280" fill="none" xmlns="http://www.w3.org/2000/svg">
<rect width="280" height="280" rx="24" fill="url(#paint0_linear_1_159)"/>
<rect x="0.5" y="0.5" width="279" height="279" rx="23.5" stroke="#0F1729" stroke-opacity="0.1"/>
<rect opacity="0.2" x="1" y="1" width="278" height="278" fill="url(#paint1_radial_1_159)"/>
<path d="M140 155C130.733 152.667 123.083 147.35 117.05 139.05C111.017 130.75 108 121.533 108 111.4V87L140 75L172 87V111.4C172 121.533 168.983 130.75 162.95 139.05C156.917 147.35 149.267 152.667 140 155ZM132 131H148C149.133 131 150.083 130.617 150.85 129.85C151.617 129.083 152 128.133 152 127V115C152 113.867 151.617 112.917 150.85 112.15C150.083 111.383 149.133 111 148 111V107C148 104.8 147.217 102.917 145.65 101.35C144.083 99.7833 142.2 99 140 99C137.8 99 135.917 99.7833 134.35 101.35C132.783 102.917 132 104.8 132 107V111C130.867 111 129.917 111.383 129.15 112.15C128.383 112.917 128 113.867 128 115V127C128 128.133 128.383 129.083 129.15 129.85C129.917 130.617 130.867 131 132 131ZM136 111V107C136 105.867 136.383 104.917 137.15 104.15C137.917 103.383 138.867 103 140 103C141.133 103 142.083 103.383 142.85 104.15C143.617 104.917 144 105.867 144 107V111H136Z" fill="#0F1729"/>
<rect x="83" y="171" width="114" height="34" rx="16" fill="white"/>
<rect x="83.5" y="171.5" width="113" height="33" rx="15.5" stroke="#0F1729" stroke-opacity="0.05"/>
<g filter="url(#filter0_dd_1_159)">
<rect x="83" y="171" width="114" height="34" rx="16" fill="white" fill-opacity="0.01" shape-rendering="crispEdges"/>
</g>
<rect x="96" y="184" width="32" height="8" rx="4" fill="#0F1729" fill-opacity="0.2"/>
<rect x="136" y="184" width="48" height="8" rx="4" fill="#0F1729" fill-opacity="0.1"/>
<defs>
<filter id="filter0_dd_1_159" x="63" y="171" width="154" height="74" filterUnits="userSpaceOnUse" color-interpolation-filters="sRGB">
<feFlood flood-opacity="0" result="BackgroundImageFix"/>
<feColorMatrix in="SourceAlpha" type="matrix" values="0 0 0 0 0 0 0 0 0 0 0 0 0 0 0 0 0 0 127 0" result="hardAlpha"/>
<feMorphology radius="6" operator="erode" in="SourceAlpha" result="effect1_dropShadow_1_159"/>
<feOffset dy="8"/>
<feGaussianBlur stdDeviation="5"/>
<feComposite in2="hardAlpha" operator="out"/>
<feColorMatrix type="matrix" values="0 0 0 0 0 0 0 0 0 0 0 0 0 0 0 0 0 0 0.1 0"/>
<feBlend mode="normal" in2="BackgroundImageFix" result="effect1_dropShadow_1_159"/>
<feColorMatrix in="SourceAlpha" type="matrix" values="0 0 0 0 0 0 0 0 0 0 0 0 0 0 0 0 0 0 127 0" result="hardAlpha"/>
<feMorphology radius="5" operator="erode" in="SourceAlpha" result="effect2_dropShadow_1_159"/>
<feOffset dy="20"/>
<feGaussianBlur stdDeviation="12.5"/>
<feComposite in2="hardAlpha" operator="out"/>
<feColorMatrix type="matrix" values="0 0 0 0 0 0 0 0 0 0 0 0 0 0 0 0 0 0 0.1 0"/>
<feBlend mode="normal" in2="effect1_dropShadow_1_159" result="effect2_dropShadow_1_159"/>
<feBlend mode="normal" in="SourceGraphic" in2="effect2_dropShadow_1_159" result="shape"/>
</filter>
<linearGradient id="paint0_linear_1_159" x1="0" y1="0" x2="280" y2="280" gradientUnits="userSpaceOnUse">
<stop stop-color="#0F1729" stop-opacity="0.05"/>
<stop offset="1" stop-color="#0F1729" stop-opacity="0.2"/>
</linearGradient>
<radialGradient id="paint1_radial_1_159" cx="0" cy="0" r="1" gradientUnits="userSpaceOnUse" gradientTransform="translate(-11443.3 -11443.3) scale(360.389)">
<stop offset="0.0160706" stop-color="white"/>
<stop offset="0.0160706" stop-color="white" stop-opacity="0"/>
</radialGradient>
</defs>
</svg>
