<svg width="48" height="48" viewBox="0 0 48 48" fill="none" xmlns="http://www.w3.org/2000/svg">
<path d="M32.7742 35.4364L35.4364 32.7742L25.8947 23.2318V11.3684H22.1053V24.7676L32.7742 35.4364ZM24.0042 48C20.6848 48 17.5647 47.3701 14.6439 46.1103C11.7231 44.8506 9.18246 43.1409 7.02188 40.9812C4.8613 38.8216 3.15084 36.2821 1.89051 33.3626C0.630169 30.4431 0 27.3236 0 24.0042C0 20.6848 0.629889 17.5647 1.88967 14.6439C3.14945 11.7231 4.85914 9.18246 7.01876 7.02188C9.17838 4.8613 11.7179 3.15085 14.6374 1.89051C17.5569 0.630169 20.6764 0 23.9958 0C27.3152 0 30.4353 0.629889 33.3561 1.88967C36.2769 3.14945 38.8175 4.85914 40.9781 7.01876C43.1387 9.17838 44.8492 11.7179 46.1095 14.6374C47.3698 17.5569 48 20.6764 48 23.9958C48 27.3152 47.3701 30.4353 46.1103 33.3561C44.8506 36.2769 43.1409 38.8175 40.9812 40.9781C38.8216 43.1387 36.2821 44.8492 33.3626 46.1095C30.4431 47.3698 27.3236 48 24.0042 48Z" fill="#6B7280"/>
</svg>
